HIERARCHY
ROOT Hips
{
	OFFSET 0.000000 0.000000 0.000000
	CHANNELS 6 Xposition Yposition Zposition Zrotation Yrotation Xrotation 
	JOINT LowerBack
	{
		OFFSET 0.000000 0.000000 0.000000
		CHANNELS 3 Zrotation Yrotation Xrotation
		JOINT Spine
		{
			OFFSET 0.028270 2.035590 -0.193380
			CHANNELS 3 Zrotation Yrotation Xrotation
			JOINT Spine1
			{
				OFFSET 0.056720 2.048850 -0.042750
				CHANNELS 3 Zrotation Yrotation Xrotation
				JOINT Neck
				{
					OFFSET 0.000000 0.000000 0.000000
					CHANNELS 3 Zrotation Yrotation Xrotation
					JOINT Neck1
					{
						OFFSET -0.054170 1.746240 0.172020
						CHANNELS 3 Zrotation Yrotation Xrotation
						JOINT Head
						{
							OFFSET 0.104070 1.761360 -0.123970
							CHANNELS 3 Zrotation Yrotation Xrotation
							End Site
							{
								OFFSET 0.000000 0.000000 0.000000
							}
						}
					}
				}
				JOINT LeftShoulder
				{
					OFFSET 0.000000 0.000000 0.000000
					CHANNELS 3 Zrotation Yrotation Xrotation
					JOINT LeftArm
					{
						OFFSET 3.362410 1.200890 -0.311210
						CHANNELS 3 Zrotation Yrotation Xrotation
						JOINT LeftForeArm
						{
							OFFSET 4.983000 -0.000000 -0.000000
							CHANNELS 3 Zrotation Yrotation Xrotation
							JOINT LeftHand
							{
								OFFSET 3.483560 -0.000000 -0.000000
								CHANNELS 3 Zrotation Yrotation Xrotation
								JOINT LeftFingerBase
								{
									OFFSET 0.000000 0.000000 0.000000
									CHANNELS 3 Zrotation Yrotation Xrotation
									JOINT LeftHandIndex1
									{
										OFFSET 0.715260 -0.000000 -0.000000
										CHANNELS 3 Zrotation Yrotation Xrotation
										End Site
										{
											OFFSET 0.000000 0.000000 0.000000
										}
									}
								}
								JOINT LThumb
								{
									OFFSET 0.000000 0.000000 0.000000
									CHANNELS 3 Zrotation Yrotation Xrotation
									End Site
									{
										OFFSET 0.000000 0.000000 0.000000
									}
								}
							}
						}
					}
				}
				JOINT RightShoulder
				{
					OFFSET 0.000000 0.000000 0.000000
					CHANNELS 3 Zrotation Yrotation Xrotation
					JOINT RightArm
					{
						OFFSET -3.136600 1.374050 -0.404650
						CHANNELS 3 Zrotation Yrotation Xrotation
						JOINT RightForeArm
						{
							OFFSET -5.241900 -0.000000 -0.000000
							CHANNELS 3 Zrotation Yrotation Xrotation
							JOINT RightHand
							{
								OFFSET -3.444170 -0.000000 -0.000000
								CHANNELS 3 Zrotation Yrotation Xrotation
								JOINT RightFingerBase
								{
									OFFSET 0.000000 0.000000 0.000000
									CHANNELS 3 Zrotation Yrotation Xrotation
									JOINT RightHandIndex1
									{
										OFFSET -0.622530 -0.000000 -0.000000
										CHANNELS 3 Zrotation Yrotation Xrotation
										End Site
										{
											OFFSET 0.000000 0.000000 0.000000
										}
									}
								}
								JOINT RThumb
								{
									OFFSET 0.000000 0.000000 0.000000
									CHANNELS 3 Zrotation Yrotation Xrotation
									End Site
									{
										OFFSET 0.000000 0.000000 0.000000
									}
								}
							}
						}
					}
				}
			}
		}
	}
}
}
MOTION
Frames: 12
Frame Time: 0.008333
16.278327 16.786530 1.597096 88.167328 -88.528109 -41.101889 2.096567 -2.059733 -5.267617 -0.249144 -2.408095 -3.833138 -5.895362 -2.539675 2.009936 10.145587 -12.897530 -12.061664 -2.355278 -0.114955 -1.483005 0.000000 0.000000 0.000000 -3.341140 12.144832 2.414705 -61.285832 23.696559 20.316995 -2.892918 -38.356955 0.006804 -4.734367 -5.683149 0.231793 -0.067915 -0.008523 -0.000000 0.000000 0.000000 0.000000 0.000000 0.000000 0.000000 14.300859 -10.910973 2.716957 67.684500 -18.043114 -0.445977 3.288093 23.608845 0.017499 -1.236365 7.870577 -0.095032 0.136068 -0.096551 0.000000 0.000000 0.000000 0.000000 0.000000 0.000000 0.000000 
16.258639 16.704301 1.597053 90.639709 -88.322815 -42.665949 1.928565 -2.092577 -5.431754 -0.292828 -2.437367 -3.880819 -5.903762 -2.572934 1.994498 10.267793 -12.988377 -12.226406 -2.370163 -0.113221 -1.544611 0.000000 0.000000 0.000000 -3.478337 12.236010 2.463531 -61.319350 23.687431 19.761391 -2.867491 -38.515023 0.007418 -4.498454 -5.793789 0.224606 -0.068639 -0.004057 -0.000000 0.000000 0.000000 0.000000 0.000000 0.000000 0.000000 14.581435 -10.980586 2.760155 67.646094 -18.079383 -0.509452 3.231624 24.051840 0.017230 -1.346707 7.916580 -0.103330 0.135316 -0.100666 0.000000 0.000000 0.000000 0.000000 0.000000 0.000000 0.000000 
16.238964 16.611105 1.597297 92.084774 -88.114412 -43.183764 1.773012 -2.125344 -5.624840 -0.334710 -2.468766 -3.934609 -5.914631 -2.608607 1.980247 10.394668 -13.072942 -12.386755 -2.390870 -0.112113 -1.604863 0.000000 0.000000 0.000000 -3.612539 12.307136 2.512462 -61.390430 23.627157 19.135730 -2.842683 -38.593250 0.008022 -4.240077 -5.910491 0.215819 -0.069503 0.000449 -0.000000 0.000000 0.000000 0.000000 0.000000 0.000000 0.000000 14.887473 -11.047814 2.800138 67.588516 -18.066351 -0.557284 3.175089 24.482131 0.016915 -1.476892 7.957163 -0.113026 0.134714 -0.104803 0.000000 0.000000 0.000000 0.000000 0.000000 0.000000 0.000000 
16.219071 16.506348 1.598041 92.615219 -87.902495 -42.770753 1.633308 -2.158252 -5.850184 -0.373655 -2.502827 -3.996018 -5.927301 -2.647321 1.964087 10.520709 -13.141540 -12.536485 -2.417213 -0.111733 -1.661721 0.000000 0.000000 0.000000 -3.742584 12.340313 2.561635 -61.503053 23.541843 18.435451 -2.818685 -38.602067 0.008584 -3.972611 -6.027626 0.206131 -0.070377 0.004921 -0.000000 0.000000 0.000000 0.000000 0.000000 0.000000 0.000000 15.208418 -11.103243 2.837821 67.521802 -18.024549 -0.607185 3.119506 24.904143 0.016561 -1.617963 7.990947 -0.123523 0.134223 -0.108944 0.000000 0.000000 0.000000 0.000000 0.000000 0.000000 0.000000 
16.199065 16.389477 1.599451 92.360291 -87.686139 -41.558037 1.511502 -2.191545 -6.108985 -0.408580 -2.539918 -4.065273 -5.940115 -2.689457 1.945971 10.641486 -13.193238 -12.673525 -2.447591 -0.111980 -1.714433 0.000000 0.000000 0.000000 -3.865565 12.331889 2.611381 -61.658987 23.437769 17.671509 -2.795808 -38.545331 0.009094 -3.707967 -6.142301 0.195942 -0.071170 0.009357 -0.000000 0.000000 0.000000 0.000000 0.000000 0.000000 0.000000 15.532036 -11.146330 2.873534 67.452368 -17.961874 -0.655463 3.065475 25.318306 0.016174 -1.766026 8.019060 -0.134520 0.133837 -0.113057 0.000000 0.000000 0.000000 0.000000 0.000000 0.000000 0.000000 
16.179023 16.260249 1.601633 91.445229 -87.464164 -39.677132 1.409359 -2.225630 -6.398947 -0.438260 -2.580413 -4.141112 -5.950765 -2.735312 1.928495 10.753619 -13.234563 -12.799642 -2.479288 -0.112579 -1.763425 0.000000 0.000000 0.000000 -3.977041 12.291432 2.662009 -61.857446 23.302179 16.869361 -2.774545 -38.421175 0.009550 -3.455607 -6.254167 0.185852 -0.071845 0.013802 -0.000000 0.000000 0.000000 0.000000 0.000000 0.000000 0.000000 15.844992 -11.184116 2.906985 67.383652 -17.871825 -0.680184 3.013313 25.717618 0.015766 -1.924926 8.046147 -0.146316 0.133613 -0.117096 0.000000 0.000000 0.000000 0.000000 0.000000 0.000000 0.000000 
16.159268 16.118780 1.604699 89.988643 -87.236575 -37.257001 1.329712 -2.260369 -6.714393 -0.461969 -2.624230 -4.223293 -5.959845 -2.784825 1.907662 10.853563 -13.254554 -12.910849 -2.512695 -0.113629 -1.807492 0.000000 0.000000 0.000000 -4.082073 12.206502 2.713938 -62.092148 23.156850 16.030813 -2.754587 -38.253703 0.009934 -3.227112 -6.357683 0.176260 -0.072281 0.018196 -0.000000 0.000000 0.000000 0.000000 0.000000 0.000000 0.000000 16.140967 -11.204365 2.939673 67.326149 -17.770116 -0.706622 2.963793 26.105186 0.015352 -2.080482 8.073774 -0.158014 0.133431 -0.121096 0.000000 0.000000 0.000000 0.000000 0.000000 0.000000 0.000000 
16.139553 15.965489 1.608637 88.115519 -87.003509 -34.434046 1.274355 -2.295938 -7.046565 -0.479120 -2.671438 -4.309867 -5.967482 -2.837987 1.883140 10.940474 -13.251832 -13.007975 -2.547334 -0.115061 -1.846950 0.000000 0.000000 0.000000 -4.184232 12.081782 2.767446 -62.354114 22.998118 15.172990 -2.735836 -38.055169 0.010245 -3.029133 -6.451051 0.167765 -0.072429 0.022538 -0.000000 0.000000 0.000000 0.000000 0.000000 0.000000 0.000000 16.416450 -11.204918 2.972017 67.284229 -17.654220 -0.739627 2.917168 26.476639 0.014942 -2.226068 8.103931 -0.169211 0.133220 -0.125065 0.000000 0.000000 0.000000 0.000000 0.000000 0.000000 0.000000 
16.119850 15.801121 1.613424 85.953514 -86.766380 -31.348111 1.244651 -2.332252 -7.384447 -0.489321 -2.721758 -4.397950 -5.973888 -2.894390 1.856100 11.015429 -13.228960 -13.094158 -2.582639 -0.116757 -1.882868 0.000000 0.000000 0.000000 -4.287344 11.930254 2.822490 -62.632440 22.810040 14.318068 -2.718104 -37.831299 0.010490 -2.861874 -6.533959 0.160470 -0.072292 0.026840 -0.000000 0.000000 0.000000 0.000000 0.000000 0.000000 0.000000 16.671160 -11.187696 3.003920 67.256814 -17.511105 -0.773392 2.873355 26.820448 0.014542 -2.362895 8.141212 -0.179908 0.132969 -0.129008 0.000000 0.000000 0.000000 0.000000 0.000000 0.000000 0.000000 
16.100383 15.626777 1.618963 83.609965 -86.528356 -28.120093 1.241129 -2.369261 -7.715670 -0.492196 -2.774801 -4.483104 -5.978436 -2.953418 1.832305 11.082292 -13.200087 -13.177922 -2.616879 -0.118402 -1.917949 0.000000 0.000000 0.000000 -4.391118 11.784528 2.878514 -62.915475 22.546555 13.503640 -2.701800 -37.567070 0.010696 -2.719335 -6.612035 0.154174 -0.071972 0.031173 -0.000000 0.000000 0.000000 0.000000 0.000000 0.000000 0.000000 16.906969 -11.166953 3.033945 67.235931 -17.306157 -0.779103 2.832004 27.113837 0.014150 -2.502482 8.188969 -0.191205 0.132760 -0.132876 0.000000 0.000000 0.000000 0.000000 0.000000 0.000000 0.000000 
16.080777 15.443947 1.625071 81.207977 -86.292765 -24.885565 1.262608 -2.406064 -8.028776 -0.489567 -2.829509 -4.565156 -5.986895 -3.014091 1.802639 11.144334 -13.137432 -13.251331 -2.656078 -0.120665 -1.950079 0.000000 0.000000 0.000000 -4.512935 11.618225 2.935348 -63.185608 22.246271 12.706948 -2.685444 -37.297427 0.010833 -2.600104 -6.677193 0.148876 -0.071356 0.035323 -0.000000 0.000000 0.000000 0.000000 0.000000 0.000000 0.000000 17.143976 -11.112428 3.064146 67.227673 -17.062308 -0.829081 2.793291 27.359915 0.013768 -2.621608 8.243989 -0.201203 0.132314 -0.136777 0.000000 0.000000 0.000000 0.000000 0.000000 0.000000 0.000000 
16.060933 15.254328 1.631567 78.829100 -86.064335 -21.737496 1.306658 -2.442193 -8.313838 -0.482044 -2.884910 -4.639869 -5.999067 -3.075213 1.774320 11.208290 -13.057107 -13.323814 -2.699349 -0.123300 -1.982216 0.000000 0.000000 0.000000 -4.650784 11.467641 2.991882 -63.432379 21.850417 11.962378 -2.669636 -36.988717 0.010929 -2.488452 -6.737485 0.143678 -0.070616 0.039340 -0.000000 0.000000 0.000000 0.000000 0.000000 0.000000 0.000000 17.391554 -11.041031 3.092363 67.217357 -16.734720 -0.888498 2.756531 27.527520 0.013379 -2.741613 8.308360 -0.211701 0.131788 -0.140630 0.000000 0.000000 0.000000 0.000000 0.000000 0.000000 0.000000 
